<svg version="1.2" xmlns="http://www.w3.org/2000/svg" viewBox="0 0 260 197" width="260" height="197"><style>.a{fill:#f9f7f2}.b{opacity:.1;mix-blend-mode:overlay;fill:#fff}.c{fill:#aaa}.d{fill:#fff}.e{opacity:.5;mix-blend-mode:overlay;fill:#fff}.f{fill:#599ed3}</style><path class="a" d="m231.4 80.4c-0.6 2.5-1.2 5-1.8 7.6q-1.2 4.7-2.4 9.4c-1.4 5.5-2.9 11.1-4.4 16.5-0.6 2.4-1.3 4.8-2 7.2q-0.3 1.1-0.6 2.1-0.6 2.2-1.3 4.5-0.5 1.6-1 3.2-0.4 1.6-0.9 3.2-0.1 0.2-0.2 0.4-1 3.4-2.1 6.7c-1.6 4.8-3.2 9.5-5 13.9q-0.6 1.7-1.2 3.3-0.2 0.3-0.3 0.7-2 5-4.1 9.5-0.7 1.4-1.4 2.8-0.2 0.4-0.4 0.8-0.6 1.1-1.2 2.2-0.2 0.5-0.5 1-0.4 0.8-0.9 1.6c-3 5.2-6.1 9.5-9.3 12.7q-0.5 0.5-1.1 1-1.2 1.1-2.4 2-0.4 0.3-0.9 0.6-0.4 0.3-0.9 0.6-0.5 0.3-1 0.5-0.2 0.1-0.4 0.2-1.1 0.6-2.2 0.9-0.3 0.1-0.6 0.2-0.5 0.1-1 0.2-0.1 0.1-0.2 0.1-0.4 0-0.8 0.1-0.3 0-0.6 0.1-0.7 0-1.3 0c-24.4 0-11.9-42.8-31.4-53.7h-8.8q-1.6 0.9-2.9 2-1.8 1.6-3.2 3.7c-10.8 15.5-4.1 48-25.4 48-13.9 0-25.5-20.5-35.2-48q0 0 0 0 0-0.1-0.1-0.1c-2.5-7.2-4.9-14.8-7.2-22.7-4-13.5-7.7-27.8-11-41.6q-0.4-1.7-0.9-3.4-1.2-5.2-2-9.9-0.5-2.7-0.9-5.2 0-0.3-0.1-0.7-0.3-2.1-0.5-4.1-0.2-2.6-0.3-4.9c-1.9-34.8 15.5-48.3 33.1-53.6 21.3-6.5 31.1 4.3 41.9 10.4q4.6 5.4 11.8 8c2.2 0.7 4.6 1.3 7.3 1.3q11.2 0 19-9.3c9.8-5.5 18.7-14.9 36.1-11.9q2.8 0.5 5.8 1.5c15.9 4.8 31.6 16.3 33.2 44 0.5 9.5-0.6 20.8-3.9 34.4z"/><path class="b" d="m106.6 147.4c-2.3 6.2-10.9 6.3-13.3 0.2q-1.2-3-2.4-6.3 0-0.3-0.1-0.6v0.1c-2.3-6.4-4.5-13.5-6.9-21.6-4.5-15.4-8.6-31.6-11.6-44-10.8-44.5 6.8-49.9 14.3-52.2q3.5-1 6-1c3.3 0 5.9 1.4 11.7 5.2q1.7 1.1 3.6 2.4 0.6 0.3 1 0.7c3.6 3.3 9.6 8 17.6 10.8 4.8 1.7 9.8 2.6 14.7 2.6 15.4 0 26.7-8.2 32.3-13.4q0.4-0.4 1-0.8 1.9-1.2 3.6-2.3c5.8-3.8 8.3-5.3 11.6-5.3q1.3 0 2.8 0.3c1 0.2 2 0.4 3.1 0.8 10 3 16.8 8.3 17.7 24.3 0.5 7.7-0.6 17.1-3.3 27.9-5.6 23.1-11.8 47.2-19 67.1q-1 2.8-2 5.4c-2.3 6.1-11 6-13.3-0.2-2.6-7.2-6.6-14.3-13.1-19.8-5.6-4.7-12.7-7.2-20-7.2h-3.8c-5.6 0-11.2 1.5-15.8 4.7-4 2.8-7.5 6.2-10.4 10.4q-0.3 0.4-0.5 0.8c-2.3 3.5-4.1 7.2-5.5 11z"/><g style="opacity:.4"><path class="c" d="m231.4 80.4c-0.6 2.5-1.2 5-1.8 7.6q-1.2 4.7-2.4 9.4c-1.4 5.5-2.9 11.1-4.4 16.5q-0.9 3.6-2 7.2-0.3 1.1-0.6 2.1-0.6 2.2-1.3 4.5-0.5 1.6-1 3.2-0.3 1-0.6 2-0.2 0.8-0.5 1.6-1 3.4-2.1 6.7c-1.6 4.8-3.2 9.5-5 13.9q-0.6 1.7-1.2 3.3-0.2 0.3-0.3 0.7-2 5-4.1 9.5-0.7 1.4-1.4 2.8-0.2 0.4-0.4 0.8-0.6 1.1-1.2 2.2-0.2 0.5-0.5 1-0.4 0.8-0.9 1.6c-3 5.2-6.1 9.5-9.3 12.7q-0.5 0.5-1.1 1-1.2 1.1-2.4 2-0.4 0.3-0.9 0.6-0.4 0.3-0.9 0.6-0.5 0.3-1 0.5-0.2 0.1-0.4 0.2-1.1 0.6-2.2 0.9-0.3 0.1-0.6 0.2-0.5 0.1-1 0.2-0.1 0.1-0.2 0.1-0.4 0-0.8 0.1-0.3 0-0.6 0.1-0.7 0-1.3 0c-24.4 0-11.9-42.8-31.4-53.7h-8.8q-1.6 0.9-2.9 2-1.8 1.6-3.2 3.7c-10.8 15.5-4.1 48-25.4 48-13.9 0-25.5-20.5-35.2-48q0 0 0 0 0-0.1-0.1-0.1c-2.5-7.2-4.9-14.8-7.2-22.7 7.5 4.9 16.4 7.5 25.5 8.1 3.2 0.3 6.4 0.3 9.5 0 6.7-0.4 13.3-1.8 19.8-3.8 5.5-1.7 11-3.8 16.3-6.2q3-1.4 5.9-2.8 0.2-0.1 0.3-0.2c3.7-1.7 7.4-3.6 10.9-5.6q6.9-3.8 13.4-8.3c7.2-4.9 13.8-10.4 19.7-16.7 7.6-8.1 13.8-17.5 17.7-27.8 2.6-6.6 4.1-13.5 4.5-20.6q0.2-3.8-0.1-7.7-0.3-3-0.9-6.1c-1-5.2-2.7-10.3-5.1-15-2.6-5.1-5.4-9.3-3.9-12.2q2.8 0.5 5.8 1.5c15.9 4.8 31.6 16.3 33.2 44 0.5 9.5-0.6 20.8-3.9 34.4z"/></g><path class="d" d="m30.2 119.5c-12.8 0.8-14.1 2.3-14.8 17.5 0 0.2-0.2 0.2-0.2 0-0.7-15.2-2-16.7-14.8-17.5-0.1 0-0.1-0.3 0-0.3 12.8-0.9 14.1-2.3 14.8-17.6 0-0.2 0.2-0.2 0.2 0 0.7 15.3 2 16.7 14.8 17.6 0.1 0 0.1 0.3 0 0.3z"/><path class="d" d="m40.4 104.8c-6.6 0.5-7.3 1.2-7.6 9.1 0 0.1-0.1 0.1-0.1 0-0.4-7.9-1-8.6-7.7-9.1-0.1 0-0.1-0.1 0-0.1 6.7-0.4 7.3-1.2 7.7-9.1 0-0.1 0.1-0.1 0.1 0 0.3 7.9 1 8.7 7.6 9.1 0.1 0 0.1 0.1 0 0.1z"/><path class="d" d="m41.7 131.9c-4.5 0.3-4.9 0.8-5.1 6.1-0.1 0.1-0.1 0.1-0.1 0-0.3-5.3-0.7-5.8-5.1-6.1-0.1 0-0.1 0 0 0 4.4-0.3 4.8-0.8 5.1-6.1 0-0.1 0-0.1 0.1 0 0.2 5.3 0.6 5.8 5.1 6.1 0 0 0 0 0 0z"/><circle class="d" cx="39.3" cy="117.9" r="1.3"/><circle class="d" cx="4.3" cy="105" r="1.1"/><path class="e" d="m175.1 32.5c-7.6-3.8-0.3-5.1 5.1-5.8 5.7-0.8 11.6-0.2 17 1.9 9 3.5 16.4 11.1 19.7 20.2 1.2 3.6 1.9 7.7 0.7 11.3-1.2 3.7-4.7 6.7-8.5 6.5-3.1-0.1-5.7-2.2-7.4-4.8-1.8-2.5-2.8-5.4-4.1-8.1-4.8-10.1-12.8-16.4-22.5-21.2z"/><circle class="e" cx="170.7" cy="26.4" r="6.5"/><g style="opacity:.4"><path class="c" d="m220.8 121.1q-1.9 6.8-4 13.4-1 3.4-2.1 6.7c-3.6-0.5-7.1-1.1-10.6-1.8-28.3-5.4-56.8-10.8-84-20.4q-13.6-4.9-26.7-11.1c-14.6-6.9-27.7-16-41.6-24.1q-0.4-1.7-0.9-3.4-1.2-5.2-2-9.9-1-5.3-1.5-10c1.3-0.6 2.7-1 4.3-1.1q0.1 0 0.2 0c37.4 27.1 134.4 55.3 168.9 61.7z"/></g><path class="f" d="m245.2 140.4c-6.9-0.6-13.6-2.6-20.4-4.1q-0.4-0.1-0.8-0.1-0.7-0.2-1.4-0.4-2.9-0.6-5.8-1.3-10.7-2.5-21.3-5.5c-8.7-2.5-17.4-5.2-26-8-6.2-2-12.3-4-18.5-6.1q-21.7-7.5-43-16.2c-11.3-4.6-22.6-9.4-33.5-14.8-6.3-3-12.4-6.2-18.5-9.6-2.3-1.3-4.7-2.5-7.1-3.8-7.3-4-15-8.7-20.4-17.1-16.5-26.1 14.1-27.3 18-27 0.1 0 0.1 0.2 0 0.3-14 8.5-11.5 18.5 0.6 28.9q2.2 1.9 4.8 3.8c5.4 3.9 12 7.8 19.5 11.7 25.6 13.3 61.6 26.1 93 35.5 12.7 3.8 24.6 7.1 34.9 9.7 8.5 2.1 15.9 3.8 21.5 4.8 6 1.1 10.1 1.6 11.7 1.3 12.2-2.4 0.3-17.7-4.1-22.7-0.1-0.2 0.1-0.4 0.2-0.2 9.4 7.8 52.9 44.4 16.6 40.9z"/><g style="opacity:.4"><path class="c" d="m133.9 144.5q1.3-1.1 2.9-2h8.8q-0.7-0.1-1.3-0.3c-2.8-0.5-8.6-0.9-10.4 2.3z"/></g><g style="opacity:.4"><path class="c" d="m208.2 159.1q-2 5-4.1 9.5-0.7 1.4-1.4 2.8-0.2 0.4-0.4 0.8-0.6 1.1-1.2 2.2-0.2 0.5-0.5 1-0.4 0.8-0.9 1.6c-3 5.2-6.1 9.5-9.3 12.7q-0.5 0.5-1.1 1-1.2 1.1-2.4 2-0.4 0.3-0.9 0.6-0.4 0.3-0.9 0.6-0.5 0.3-1 0.5-0.2 0.1-0.4 0.2-1.1 0.6-2.2 0.9-0.3 0.1-0.6 0.2-0.5 0.1-1 0.2-0.1 0.1-0.2 0.1-0.4 0-0.8 0.1-0.3 0-0.6 0.1-0.7 0-1.3 0c-24.4 0-11.9-42.8-31.4-53.7 8.5 2.1 16.1 7.8 20.2 15.5 2.4 4.7 3.8 10.1 7.9 13.3 5.1 4 12.5 3 18.3 0.3 6.3-2.8 11.7-7.3 16.2-12.5z"/></g><g style="opacity:.4"><path class="c" d="m224.9 131.1q-0.4 2.5-0.9 5.1-0.7-0.2-1.4-0.4 1.2-2.3 2.3-4.7z"/></g></svg>