<svg version="1.2" xmlns="http://www.w3.org/2000/svg" viewBox="0 0 282 196" width="282" height="196"><style>.a{fill:#f9f7f2}.b{opacity:.4;mix-blend-mode:overlay;fill:#fff}.c{fill:#fff}.d{fill:#599ed3}.e{mix-blend-mode:screen;fill:#fff}.f{fill:#aaa}</style><path class="a" d="m218.3 79.9c-13 53.5-30 115.8-54.4 115.8-24.4 0-11.9-42.8-31.4-53.7h-8.8c-2.6 1.4-4.5 3.4-6.1 5.7-10.9 15.5-4.1 48-25.4 48-11.3 0-21-13.4-29.5-33.2-2-4.6-3.9-9.6-5.8-14.8q0 0 0 0c0-0.1 0-0.1 0-0.1-2-5.8-4-11.8-5.9-18.1-4.8-16-9.2-33.2-13.2-49.6-13-53.5 8-71.9 29.3-78.4 21.3-6.5 46.5 15.8 53.7 18.4q1.9 0.7 4 1 1.6 0.2 3.3 0.3c11.1 0 39.6-26.2 60.9-19.7 7.6 2.3 15 6 21 12.3 6.6 7 11.4 17.1 12.2 31.7 0.5 9.5-0.6 20.8-3.9 34.4z"/><path class="b" d="m91.4 153.4c-1.1 4.1-6.8 4.5-8.4 0.6q-0.1-0.1-0.1-0.1c-1.7-3.9-3.4-8.4-5.1-13.1q-0.1-0.3-0.2-0.6l0.1 0.1c-1.9-5.3-3.8-11.1-5.6-17.2-5-16.2-9.3-33.6-12.9-48.4-10.8-44.5 6.8-49.9 14.3-52.2q0.7-0.2 1.8-0.2c7.5 0 19.3 7.5 25.7 11.5 4.6 3 8.3 5.4 12.4 6.8 2.6 0.9 5.3 1.6 8.1 2 2.2 0.4 4.4 0.6 6.6 0.6 9.7 0 18.5-4.9 28.6-10.4 7.5-4.2 18.9-10.4 25-10.4 0.6 0 0.9 0.1 0.9 0.1 5 1.5 8.7 3.7 11.4 6.5 3.7 3.9 5.8 9.7 6.2 17.8 0.5 7.7-0.7 17.1-3.3 27.9-5.6 23.1-11.8 47.2-19 67.1-1.7 4.7-3.3 8.8-4.8 12.2-1.6 3.9-7.3 3.6-8.4-0.5-2.8-10.2-7.7-21.4-18.3-28.7-4.7-3.2-10.3-4.8-15.9-4.8h-5.6c-4.7 0-9.3 1.2-13.2 3.6-4.8 2.9-8.9 6.7-12.2 11.5q-0.3 0.4-0.5 0.8c-3.7 5.5-6 11.6-7.6 17.5z"/><path class="c" d="m16.3 97.6c-6.2 0.5-7.3 1.8-7.8 9.1 0 0.2-0.4 0.2-0.4 0-0.4-7.3-1.5-8.6-7.8-9.1-0.2 0-0.2-0.4 0-0.4 6.3-0.5 7.4-1.7 7.8-9 0-0.3 0.4-0.3 0.4 0 0.5 7.3 1.6 8.5 7.8 9 0.3 0 0.3 0.4 0 0.4z"/><path class="c" d="m18 130.8c-3.8 0.4-4.6 1.3-4.9 5.6 0 0.2-0.3 0.2-0.3 0-0.3-4.3-1.1-5.2-4.8-5.6-0.2 0-0.2-0.3 0-0.3 3.7-0.4 4.5-1.2 4.8-5.5 0-0.2 0.3-0.2 0.3 0 0.3 4.3 1.1 5.1 4.9 5.5 0.2 0 0.2 0.3 0 0.3z"/><circle class="c" cx="16.4" cy="113.5" r="1.6"/><path class="c" d="m267.4 49.9c-13.7 1-15.6 3.1-16.5 19.3 0 0.3-0.4 0.3-0.5 0-0.8-16.2-2.7-18.3-16.4-19.3-0.4-0.1-0.4-0.6 0-0.6 13.7-1 15.6-3.2 16.4-19.3 0.1-0.3 0.5-0.3 0.5 0 0.9 16.1 2.8 18.3 16.5 19.3 0.4 0 0.4 0.5 0 0.6z"/><path class="c" d="m281.7 65.2c-3.7 0.3-4.5 1.2-4.8 5.5-0.1 0.2-0.3 0.2-0.4 0-0.3-4.3-1.1-5.2-4.8-5.5-0.2-0.1-0.2-0.4 0-0.4 3.7-0.3 4.5-1.2 4.8-5.5 0.1-0.2 0.3-0.2 0.4 0 0.3 4.3 1.1 5.2 4.8 5.5 0.2 0 0.2 0.3 0 0.4z"/><path class="d" d="m113.9 108.7c4 0.2 8 0 11.9-0.8 3.8-0.7 7.6-1.8 11.2-3.4 3.6-1.6 7-3.5 10.2-5.8 3.2-2.3 6.1-5 8.9-7.9 0.4-0.4 1-0.4 1.4-0.1 0.4 0.4 0.4 0.8 0.2 1.2-1.9 3.9-4.7 7.2-7.9 10.1-3.3 2.8-7 5.1-11 6.7-4 1.7-8.2 2.8-12.5 3.1-4.3 0.4-8.6 0.1-12.7-1.1-0.6-0.1-0.9-0.7-0.7-1.2 0.1-0.5 0.5-0.8 1-0.8z"/><path class="d" d="m154.2 79.2c0.9 2.3 1.9 4.3 3 6.1q1.7 2.8 3.9 5 2.2 2.2 4.9 3.9c1.9 1.1 3.9 2 6.1 3l-0.1 2c-2.6 0.6-5.4 0.3-8-0.5-2.6-0.9-5-2.4-7-4.4-1.9-1.9-3.4-4.4-4.3-7-0.8-2.6-1.1-5.3-0.5-8z"/><path class="e" d="m73.1 64.6c-0.2 5.7-3.7 11-10.5 9.4-4.1-1-7.2-4.5-8.5-8.5-1.4-3.9-1.3-8.2-0.8-12.4 0.9-7.5 3-15.2 7.7-21.2 4.7-6 12.3-10.1 19.8-9.2 4 0.6 8.1 2.9 9 6.7 0.8 3.2-0.7 6.5-2.8 8.9-2.2 2.4-4.9 4.3-7.1 6.6-5.5 5.6-6.6 12.3-6.8 19.7z"/><circle class="e" cx="93.7" cy="55" r="7.6"/><g style="opacity:.4"><path class="f" d="m218.3 79.9c-13 53.5-30 115.8-54.4 115.8-24.4 0-11.9-42.8-31.4-53.7h-8.8c-2.6 1.4-4.5 3.4-6.1 5.7-10.9 15.5-4.1 48-25.4 48-11.3 0-21-13.4-29.5-33.2 9.6 6 23.6 5 31.6-3.3 4.4-4.5 6.9-10.4 10-15.8 3.2-5.4 7.6-10.7 13.7-12.2 8.8-2.2 17.3 4.1 23.5 10.5 6.3 6.5 12.6 14.1 21.5 15.5 11.7 2 22.1-7.4 29.1-17 11-15 18.6-32.4 22.7-50.6 3.5-15.9 4.4-32.7 2.1-48.8-1.3-9.2-4.5-18-6.9-27 6.6 7 11.4 17.1 12.2 31.7 0.5 9.5-0.6 20.8-3.9 34.4z"/></g></svg>